HIERARCHY
ROOT Hips
{
	OFFSET 0.000000 0.000000 0.000000
	CHANNELS 6 Xposition Yposition Zposition Zrotation Yrotation Xrotation 
	JOINT LHipJoint
	{
		OFFSET 0.000000 0.000000 0.000000
		CHANNELS 3 Zrotation Yrotation Xrotation
		JOINT LeftUpLeg
		{
			OFFSET 1.363060 -1.794630 0.839290
			CHANNELS 3 Zrotation Yrotation Xrotation
			JOINT LeftLeg
			{
				OFFSET 2.448110 -6.726130 0.000000
				CHANNELS 3 Zrotation Yrotation Xrotation
				JOINT LeftFoot
				{
					OFFSET 2.562200 -7.039590 0.000000
					CHANNELS 3 Zrotation Yrotation Xrotation
					JOINT LeftToeBase
					{
						OFFSET 0.157640 -0.433110 2.322550
						CHANNELS 3 Zrotation Yrotation Xrotation
						End Site
						{
							OFFSET 0.000000 0.000000 0.000000
						}
					}
				}
			}
		}
	}
	JOINT RHipJoint
	{
		OFFSET 0.000000 0.000000 0.000000
		CHANNELS 3 Zrotation Yrotation Xrotation
		JOINT RightUpLeg
		{
			OFFSET -1.305520 -1.794630 0.839290
			CHANNELS 3 Zrotation Yrotation Xrotation
			JOINT RightLeg
			{
				OFFSET -2.542530 -6.985550 0.000000
				CHANNELS 3 Zrotation Yrotation Xrotation
				JOINT RightFoot
				{
					OFFSET -2.568260 -7.056230 0.000000
					CHANNELS 3 Zrotation Yrotation Xrotation
					JOINT RightToeBase
					{
						OFFSET -0.164730 -0.452590 2.363150
						CHANNELS 3 Zrotation Yrotation Xrotation
						End Site
						{
							OFFSET 0.000000 0.000000 0.000000
						}
					}
				}
			}
		}
	}
	JOINT LowerBack
	{
		OFFSET 0.000000 0.000000 0.000000
		CHANNELS 3 Zrotation Yrotation Xrotation
		JOINT Spine
		{
			OFFSET 0.028270 2.035590 -0.193380
			CHANNELS 3 Zrotation Yrotation Xrotation
			JOINT Spine1
			{
				OFFSET 0.056720 2.048850 -0.042750
				CHANNELS 3 Zrotation Yrotation Xrotation
				JOINT Neck
				{
					OFFSET 0.000000 0.000000 0.000000
					CHANNELS 3 Zrotation Yrotation Xrotation
					JOINT Neck1
					{
						OFFSET -0.054170 1.746240 0.172020
						CHANNELS 3 Zrotation Yrotation Xrotation
						JOINT Head
						{
							OFFSET 0.104070 1.761360 -0.123970
							CHANNELS 3 Zrotation Yrotation Xrotation
							End Site
							{
								OFFSET 0.000000 0.000000 0.000000
							}
						}
					}
				}
				JOINT LeftShoulder
				{
					OFFSET 0.000000 0.000000 0.000000
					CHANNELS 3 Zrotation Yrotation Xrotation
					JOINT LeftArm
					{
						OFFSET 3.362410 1.200890 -0.311210
						CHANNELS 3 Zrotation Yrotation Xrotation
						JOINT LeftForeArm
						{
							OFFSET 4.983000 -0.000000 -0.000000
							CHANNELS 3 Zrotation Yrotation Xrotation
							JOINT LeftHand
							{
								OFFSET 3.483560 -0.000000 -0.000000
								CHANNELS 3 Zrotation Yrotation Xrotation
								JOINT LeftFingerBase
								{
									OFFSET 0.000000 0.000000 0.000000
									CHANNELS 3 Zrotation Yrotation Xrotation
									JOINT LeftHandIndex1
									{
										OFFSET 0.715260 -0.000000 -0.000000
										CHANNELS 3 Zrotation Yrotation Xrotation
										End Site
										{
											OFFSET 0.000000 0.000000 0.000000
										}
									}
								}
								JOINT LThumb
								{
									OFFSET 0.000000 0.000000 0.000000
									CHANNELS 3 Zrotation Yrotation Xrotation
									End Site
									{
										OFFSET 0.000000 0.000000 0.000000
									}
								}
							}
						}
					}
				}
				JOINT RightShoulder
				{
					OFFSET 0.000000 0.000000 0.000000
					CHANNELS 3 Zrotation Yrotation Xrotation
					JOINT RightArm
					{
						OFFSET -3.136600 1.374050 -0.404650
						CHANNELS 3 Zrotation Yrotation Xrotation
						JOINT RightForeArm
						{
							OFFSET -5.241900 -0.000000 -0.000000
							CHANNELS 3 Zrotation Yrotation Xrotation
							JOINT RightHand
							{
								OFFSET -3.444170 -0.000000 -0.000000
								CHANNELS 3 Zrotation Yrotation Xrotation
								JOINT RightFingerBase
								{
									OFFSET 0.000000 0.000000 0.000000
									CHANNELS 3 Zrotation Yrotation Xrotation
									JOINT RightHandIndex1
									{
										OFFSET -0.622530 -0.000000 -0.000000
										CHANNELS 3 Zrotation Yrotation Xrotation
										End Site
										{
											OFFSET 0.000000 0.000000 0.000000
										}
									}
								}
								JOINT RThumb
								{
									OFFSET 0.000000 0.000000 0.000000
									CHANNELS 3 Zrotation Yrotation Xrotation
									End Site
									{
										OFFSET 0.000000 0.000000 0.000000
									}
								}
							}
						}
					}
				}
			}
		}
	}
}
MOTION
Frames: 11
Frame Time: 0.033333
2.414132 17.112262 -27.936991 -2.116957 -2.492008 -0.206122 -15.019254 6.890941 -2.178658 -2.442450 8.856439 -12.747243 -10.338762 1.488723 17.567827 1.668403 4.765257 -4.642741 -0.211380 0.121431 -31.467010 11.792659 -9.324611 7.971721 8.440795 -7.039596 -24.145263 3.181859 -4.620353 21.541559 -0.201993 5.813048 -11.497982 1.169738 0.187727 -62.417301 -1.963633 -5.572230 -1.583454 -5.917481 0.252601 -2.699683 -7.659117 -0.402638 3.785629 12.892066 -13.328214 -15.538165 -2.322066 -0.184440 -1.953424 0.040568 -0.006267 0.013809 3.823962 22.108095 14.662189 -39.444710 -12.193051 -42.111657 -8.366223 -17.207852 1.530776 4.291745 3.978707 0.106315 -0.252746 0.041344 -0.031363 -0.047215 0.035457 0.012873 -0.034468 0.033299 -0.036235 21.456414 -27.884817 10.006336 65.636132 12.192630 1.366387 -4.435599 31.745983 -2.266754 -0.465821 8.202026 -0.182777 -0.091301 -0.430135 -0.050155 -0.044085 0.053724 -0.071281 0.002368 0.068070 0.012057 
2.489271 17.099463 -27.470352 -2.506934 -0.842443 1.079796 -15.348409 6.291633 -2.894312 -1.469311 9.554661 -12.238671 -11.311258 0.927213 19.079467 1.816419 3.570622 -6.188163 -0.401979 0.143755 -30.117227 10.922459 -7.849879 8.717462 7.403213 -5.811491 -25.776588 3.921011 -4.225119 24.398533 0.542823 8.106578 -9.066767 1.251635 0.151483 -63.939533 -2.133764 -7.436788 -3.460594 -5.538815 -0.144201 -2.766214 -7.201569 0.091970 4.459956 12.603092 -13.584882 -14.813516 -2.321540 -0.177169 -1.949391 0.042997 0.002553 0.014771 4.929299 21.422003 14.832619 -35.312664 -16.964995 -44.966231 -8.459826 -18.020327 1.748791 4.506483 3.584741 0.090232 -0.299612 -0.030604 -0.027345 -0.041731 0.033399 0.014965 -0.024750 0.031611 -0.036253 20.747895 -29.105066 12.208784 64.230597 12.121473 -0.672683 -5.325792 29.614973 -2.641241 -0.667104 8.097985 -0.204080 -0.100260 -0.445048 -0.052639 -0.033419 0.043692 -0.070482 0.005618 0.073025 0.000330 
2.553317 17.110811 -27.026270 -2.669330 0.253553 2.144416 -15.301141 5.805209 -3.581416 -2.243208 7.895244 -11.589440 -9.468629 1.255236 21.037449 2.332296 4.023249 -7.940292 -0.817921 0.121507 -28.577091 11.222953 -6.742543 7.881460 6.099008 -5.501624 -28.195550 3.777489 -4.981860 31.775087 -0.048339 6.493752 -6.615349 1.141526 0.084129 -63.541723 -2.001835 -10.239101 -5.329046 -5.224385 -0.270781 -2.381725 -7.265857 1.305970 4.740898 12.545449 -13.489291 -14.654605 -2.215696 -0.160530 -1.845217 0.042295 0.012772 0.022652 4.322144 20.496476 14.179143 -31.416458 -20.759529 -46.130426 -7.278650 -17.557092 1.464222 5.551109 3.036856 0.092443 -0.265716 -0.035118 -0.029166 -0.028346 0.039976 0.011544 -0.021751 0.035368 -0.038387 20.276124 -29.821446 13.889116 63.895196 12.846017 -3.234084 -5.980371 25.132763 -3.203629 -1.107135 7.959175 -0.233858 -0.066519 -0.381578 -0.054244 -0.015826 0.037563 -0.076350 0.006162 0.079098 -0.010758 
2.609888 17.145490 -26.602098 -2.992819 1.095389 3.556810 -15.038006 5.401566 -4.487410 -3.256991 7.013157 -10.625544 -7.807530 0.250310 21.948514 2.489308 5.119317 -8.950861 -1.216281 0.172142 -26.581819 12.091777 -5.532351 7.023227 3.524083 -4.675987 -31.649129 5.286866 -4.494687 41.545118 -0.003054 5.528660 -0.513752 0.754782 0.030207 -61.554149 -1.824017 -11.824027 -6.804489 -5.256706 0.483160 -2.477783 -8.045600 1.154319 4.494777 12.572326 -13.006727 -13.975886 -2.186718 -0.173091 -1.698958 0.041405 0.016234 0.024547 3.394850 19.485793 13.194642 -31.267016 -24.311209 -43.240775 -6.681385 -17.086263 1.554656 6.393811 2.834146 0.115142 -0.243591 -0.040229 -0.029997 -0.020438 0.046871 -0.000185 -0.023874 0.048365 -0.034201 19.861257 -30.531941 17.049311 64.089709 13.717464 -6.225223 -6.109390 20.331401 -3.225675 -1.408292 7.554401 -0.249526 -0.081311 -0.429315 -0.060639 -0.006146 0.025535 -0.080085 0.002338 0.085965 -0.022135 
2.667458 17.202752 -26.197670 -2.923024 1.000428 3.003604 -15.126736 4.703998 -3.181735 -3.726548 7.772016 -10.905879 -6.861853 -0.507707 23.954465 2.541569 6.871370 -8.818063 -1.443956 0.199560 -24.183255 13.176777 -5.619044 6.059340 3.260452 -6.598735 -34.692769 2.699236 -5.727732 50.591012 -1.378391 -0.922940 5.900428 0.411734 0.045669 -57.867755 -1.260031 -11.400916 -6.998791 -5.408214 0.803171 -2.251006 -8.090673 1.762370 4.716542 12.259463 -12.805649 -13.713663 -2.134338 -0.163000 -1.543977 0.030198 0.020352 0.026582 1.681335 17.942292 12.292336 -35.270010 -25.211479 -38.882343 -6.049014 -16.791014 1.551667 7.185224 2.748196 0.151361 -0.246268 -0.036135 -0.038255 -0.012615 0.055275 -0.003280 -0.033984 0.053531 -0.028713 19.863735 -30.309636 17.885628 64.157856 14.366135 -8.398068 -5.791768 18.208851 -2.778439 -2.008052 7.455107 -0.282654 -0.053667 -0.336873 -0.058187 -0.004736 0.009050 -0.083433 0.006549 0.090361 -0.031801 
2.730654 17.278478 -25.816242 -3.019461 0.226880 3.549511 -15.331508 4.440154 -1.335777 -4.022430 7.931843 -11.466618 -6.681538 -2.094004 23.131710 2.280305 9.117118 -9.170306 -1.548975 0.264275 -21.696658 13.372985 -5.523636 4.987768 3.543070 -6.710281 -37.823569 1.416747 -6.153423 56.475925 -1.759699 -5.773518 9.924453 0.261480 0.077337 -54.290723 -0.758272 -8.210845 -7.703904 -5.378157 0.658657 -2.205864 -7.625100 0.575930 4.910146 11.936825 -12.377711 -13.668855 -2.075827 -0.154539 -1.626729 0.016896 0.022032 0.022755 1.409812 18.098679 12.175607 -39.988827 -25.453402 -35.739969 -6.786980 -17.682480 1.799272 7.760048 2.664791 0.189226 -0.224971 -0.042087 -0.041779 -0.010155 0.051356 -0.010023 -0.040801 0.058429 -0.015897 18.339642 -29.819994 15.970807 64.683126 13.634574 -9.266782 -4.333197 17.662507 -2.218297 -2.445418 7.252913 -0.299045 -0.058800 -0.347367 -0.055451 -0.000426 -0.008574 -0.085230 0.010858 0.093953 -0.038947 
2.786497 17.364444 -25.456221 -3.856584 0.030318 4.556020 -15.135783 4.262571 -0.317142 -4.508981 7.606124 -12.187350 -5.613516 -4.062486 23.247340 1.480453 11.852274 -9.115297 -1.526554 0.294035 -19.579995 12.916900 -4.751660 4.336582 4.992027 -6.824145 -41.528794 0.632184 -5.489161 59.199732 -1.611030 -7.103997 9.750833 0.374832 0.076026 -51.860184 -0.077036 -6.296915 -8.417715 -4.853224 1.180125 -2.617934 -7.076881 0.165104 5.771888 11.114917 -12.524090 -13.319361 -1.945248 -0.160234 -1.478509 0.001306 0.019938 0.025705 0.905507 17.682568 11.802330 -43.903234 -25.153593 -33.659377 -6.745031 -20.343653 1.568207 7.699296 2.617699 0.196239 -0.219474 -0.069265 -0.048267 -0.011234 0.043711 -0.003567 -0.046961 0.054536 -0.004791 16.465672 -28.944709 12.616042 65.107788 11.207163 -9.647389 -2.795267 20.359124 -1.575970 -2.749789 7.208373 -0.307293 0.008301 -0.294025 -0.045547 0.000113 -0.019620 -0.091301 0.025811 0.096102 -0.036937 
2.850958 17.445291 -25.112509 -5.337843 -0.234250 4.916701 -14.492513 3.715364 1.546675 -4.358460 7.479938 -13.542497 -4.541472 -3.726884 23.367401 0.766449 13.051014 -8.353396 -1.485775 0.289981 -17.745819 12.513699 -4.566896 4.514877 6.710228 -6.403734 -43.312407 0.330266 -3.881920 56.881824 -1.834425 -5.868563 2.926162 0.452826 0.113461 -50.893716 0.614246 -4.611586 -8.049589 -4.078486 1.141996 -2.406594 -6.337264 0.538110 5.558440 10.589148 -12.648853 -13.403678 -1.975652 -0.186225 -1.300392 -0.014374 0.020687 0.024388 1.179699 16.837380 11.393194 -47.582321 -24.551331 -31.629814 -8.092847 -23.093888 2.049417 7.619676 2.328456 0.190227 -0.219318 -0.095207 -0.054527 -0.016227 0.034719 0.000225 -0.046987 0.050369 0.008443 14.346127 -29.466559 9.059268 65.556219 9.106612 -9.858720 -1.599373 24.126414 -1.511889 -2.962754 7.157766 -0.304616 0.041070 -0.249391 -0.034291 0.003407 -0.028427 -0.094027 0.044263 0.096460 -0.034377 
2.906078 17.520673 -24.780548 -5.500240 -0.462596 5.637778 -14.597355 3.069683 2.589881 -4.823639 7.780219 -13.736650 -3.612020 -4.230220 22.344397 -0.312322 14.443513 -7.510943 -1.114307 0.212198 -17.041757 12.195473 -4.017420 4.741519 7.015276 -5.283637 -43.289068 -0.036326 -3.257651 49.882894 -2.022982 -4.793080 -0.099127 0.593276 0.080114 -50.682824 -0.082624 -3.583586 -7.827166 -2.869121 0.995922 -2.505088 -6.155460 0.307331 5.626349 10.145608 -13.057787 -13.092194 -1.831060 -0.191807 -1.035717 -0.021322 0.008023 0.024515 2.365725 16.379595 10.903577 -49.996572 -23.530045 -29.749887 -9.176730 -26.015283 2.237267 6.945720 2.279419 0.166851 -0.217003 -0.056870 -0.055446 -0.020733 0.029777 0.007791 -0.051071 0.053512 0.013551 11.570190 -28.072456 7.691571 66.376106 7.366688 -9.021854 -0.916410 28.978815 -1.310824 -3.096593 7.325361 -0.319516 0.060526 -0.247696 -0.028155 0.003377 -0.029162 -0.099819 0.054951 0.090612 -0.022417 
2.947251 17.592147 -24.459087 -5.825737 -0.778374 4.764621 -14.199089 2.733702 4.654561 -5.150362 8.972339 -13.773772 -3.592794 -4.960735 21.792255 -1.166109 15.700364 -6.181558 -0.810686 0.109149 -16.929906 11.834186 -3.661449 5.898721 7.150702 -5.213501 -40.523602 1.607091 -2.174670 39.707136 -1.909970 -4.659335 0.233028 0.631800 0.074290 -51.075532 0.719375 -3.120169 -5.970259 -3.207542 0.617597 -2.236917 -5.326553 0.437748 5.556696 10.267079 -13.469682 -13.021979 -1.724253 -0.190535 -0.894263 -0.025755 -0.000812 0.020914 2.890231 15.880188 10.076027 -51.925197 -21.587614 -27.961581 -8.742768 -28.464626 2.025512 6.633491 1.830798 0.128988 -0.221899 -0.025572 -0.056323 -0.026043 0.029302 0.016941 -0.053892 0.058071 0.014826 9.823869 -27.552656 6.498521 66.585817 5.862304 -8.081829 -0.246825 32.967405 -1.071725 -3.273840 7.401783 -0.331062 0.070520 -0.272332 -0.021991 0.010127 -0.033475 -0.107728 0.067856 0.085294 -0.015572 
2.971713 17.658255 -24.143827 -5.952651 -0.606512 5.249800 -14.441440 2.173021 4.679891 -5.421903 9.482529 -12.508797 -2.339516 -5.896430 20.414684 -2.374945 17.107310 -5.125196 -0.677010 0.066874 -16.935918 11.197844 -3.106147 5.855178 6.899402 -4.604084 -38.068167 2.809257 -1.466879 29.260097 -1.793248 -5.000177 1.267726 0.429193 0.051773 -51.063063 1.101412 -2.504572 -5.845923 -2.979766 -0.109897 -1.680698 -4.882778 -0.061073 5.163481 10.401294 -14.115019 -12.859128 -1.744468 -0.194780 -0.771655 -0.022884 -0.015093 0.018906 3.520489 15.384648 9.121214 -52.351954 -18.613133 -24.608123 -8.528695 -31.376642 1.919740 5.680507 1.715819 0.094841 -0.226193 0.026092 -0.045878 -0.034914 0.027505 0.025086 -0.047031 0.069625 0.020151 8.837486 -27.772124 5.439126 66.656832 3.960983 -6.009914 0.100943 36.809655 -1.249134 -2.841059 7.390308 -0.306980 0.073742 -0.286129 -0.025726 0.000894 -0.029788 -0.102982 0.065848 0.083490 -0.005494 
